<?xml version="1.0" standalone="no"?>
<!DOCTYPE svg PUBLIC "-//W3C//DTD SVG 20010904//EN"
 "http://www.w3.org/TR/2001/REC-SVG-20010904/DTD/svg10.dtd">
<svg version="1.0" xmlns="http://www.w3.org/2000/svg"
 width="536.000000pt" height="466.000000pt" viewBox="0 0 536.000000 466.000000"
 preserveAspectRatio="xMidYMid meet">

<g transform="translate(0.000000,466.000000) scale(0.100000,-0.100000)"
fill="#000000" stroke="none">
<path d="M3035 3908 c-85 -30 -112 -81 -126 -233 -23 -259 -73 -353 -264 -498
-285 -217 -455 -408 -577 -652 -59 -117 -71 -131 -153 -170 -66 -31 -75 -38
-80 -68 -8 -41 2 -1397 10 -1417 12 -32 55 -42 308 -70 433 -48 626 -60 951
-60 564 0 702 26 775 143 22 37 46 126 56 210 6 56 10 61 71 119 123 116 145
224 74 357 l-33 61 65 68 c105 109 111 164 34 317 -25 50 -46 95 -46 101 0 7
17 47 37 90 34 73 37 86 38 169 0 79 -3 97 -29 148 -33 68 -84 106 -182 137
-117 36 -214 43 -484 37 -280 -6 -335 -1 -363 34 -27 34 -17 80 54 239 139
308 160 361 174 426 29 135 10 276 -53 404 -48 96 -81 120 -166 119 -34 0 -74
-5 -91 -11z"/>
<path d="M1180 2330 c-20 -20 -20 -33 -20 -748 0 -642 2 -730 16 -750 15 -22
18 -22 270 -22 241 0 255 1 274 20 20 20 20 33 20 750 0 717 0 730 -20 750
-19 19 -33 20 -270 20 -237 0 -251 -1 -270 -20z"/>
</g>
</svg>
